<?xml version="1.0" standalone="no"?>
<!DOCTYPE svg PUBLIC "-//W3C//DTD SVG 20010904//EN"
 "http://www.w3.org/TR/2001/REC-SVG-20010904/DTD/svg10.dtd">
<svg version="1.0" xmlns="http://www.w3.org/2000/svg"
 width="1024.000000pt" height="1024.000000pt" viewBox="0 0 1024.000000 1024.000000"
 preserveAspectRatio="xMidYMid meet">

<g transform="translate(0.000000,1024.000000) scale(0.100000,-0.100000)"
fill="#000000" stroke="none">
<path d="M2447 7006 c-219 -79 -247 -362 -48 -487 l46 -28 0 -80 0 -79 -375
-4 -375 -4 -82 -27 c-164 -55 -318 -188 -393 -342 -73 -147 -71 -123 -68 -882
3 -670 4 -679 25 -736 82 -214 235 -365 441 -433 l82 -27 0 -184 c0 -207 7
-240 62 -273 36 -22 73 -25 113 -10 15 6 132 111 262 234 l235 225 506 3 c568
4 542 1 697 81 58 30 103 64 161 122 91 89 140 169 176 285 l23 75 0 670 0
670 -28 82 c-54 161 -185 313 -335 391 -145 75 -143 75 -562 80 l-375 4 2 80
1 80 50 29 c87 49 132 128 132 229 0 107 -52 189 -152 239 -69 35 -152 41
-221 17z m156 -208 c64 -74 -49 -173 -118 -103 -41 40 -32 99 19 120 38 17 75
10 99 -17z m774 -682 c86 -23 163 -68 230 -132 77 -76 119 -158 133 -265 12
-96 12 -1131 0 -1229 -14 -105 -57 -189 -139 -270 -36 -36 -91 -77 -121 -92
-115 -57 -130 -58 -680 -58 l-505 0 -195 -195 c-107 -107 -198 -195 -202 -195
-5 0 -8 66 -8 148 0 128 -3 151 -20 179 -24 39 -39 48 -125 68 -224 52 -373
206 -394 407 -14 132 -6 1254 9 1308 26 94 83 175 170 241 62 47 102 67 175
85 77 19 1600 19 1672 0z"/>
<path d="M1909 5846 c-160 -45 -287 -187 -325 -364 -20 -96 -20 -709 1 -805
36 -171 166 -315 350 -388 l60 -24 514 -3 c484 -3 518 -2 591 17 175 44 290
133 363 279 l42 85 3 396 c3 279 0 412 -8 451 -26 122 -119 248 -230 313 -96
56 -113 57 -740 56 -432 -1 -586 -4 -621 -13z m1257 -208 c29 -15 68 -46 88
-70 64 -75 67 -100 64 -515 -3 -362 -3 -369 -26 -411 -34 -64 -96 -120 -170
-155 l-67 -32 -515 0 -515 0 -57 27 c-74 34 -141 97 -173 161 l-25 51 0 371
c0 433 1 437 85 522 85 85 65 82 705 80 l555 -2 51 -27z"/>
<path d="M2110 5392 c-51 -25 -80 -74 -80 -136 0 -91 54 -146 144 -146 72 0
136 69 136 147 0 50 -38 110 -84 132 -52 26 -71 26 -116 3z"/>
<path d="M2861 5393 c-48 -25 -73 -63 -79 -121 -8 -91 52 -162 138 -162 84 0
140 58 140 146 0 112 -107 186 -199 137z"/>
<path d="M2226 4899 c-20 -16 -26 -29 -26 -59 0 -33 7 -44 51 -84 104 -93 254
-140 382 -119 75 13 178 60 225 103 26 23 32 37 32 69 0 32 -5 44 -25 57 -31
20 -83 14 -123 -14 -45 -33 -138 -55 -203 -49 -66 6 -146 40 -203 86 -45 36
-73 39 -110 10z"/>
<path d="M5530 5890 l0 -520 90 0 90 0 0 233 c0 222 1 235 23 277 52 104 197
107 254 5 22 -38 23 -50 23 -277 l0 -238 90 0 90 0 0 245 c0 138 -5 266 -11
295 -43 201 -278 278 -423 138 -27 -26 -50 -48 -50 -48 -1 0 0 92 2 205 l3
205 -91 0 -90 0 0 -520z"/>
<path d="M4851 6384 c-80 -21 -165 -71 -217 -126 -183 -196 -177 -609 12 -788
96 -91 208 -126 380 -118 137 7 203 30 279 100 62 56 81 88 101 163 24 88 28
85 -89 85 l-103 0 -13 -45 c-32 -109 -167 -162 -305 -121 -72 22 -114 60 -150
135 -30 65 -31 69 -31 211 0 126 3 151 21 190 47 102 116 150 225 158 120 8
208 -40 239 -132 l12 -36 102 0 103 0 -8 49 c-28 178 -195 292 -426 290 -43 0
-102 -7 -132 -15z"/>
<path d="M7140 6210 l0 -100 -60 0 -60 0 0 -80 0 -80 60 0 60 0 0 -197 c0
-212 7 -258 47 -312 39 -51 93 -71 196 -71 l87 0 0 79 0 79 -56 4 c-39 3 -61
11 -77 27 -21 20 -22 32 -25 206 l-4 185 81 0 81 0 0 80 0 80 -80 0 -80 0 0
100 0 100 -85 0 -85 0 0 -100z"/>
<path d="M6542 6115 c-98 -27 -151 -67 -187 -138 -41 -84 -39 -87 63 -87 l88
0 11 30 c20 54 115 76 189 45 39 -16 64 -62 64 -117 l0 -33 -97 3 c-148 5
-274 -28 -325 -85 -65 -71 -64 -215 2 -294 86 -105 306 -118 389 -24 l31 36 0
-41 0 -40 85 0 85 0 0 250 c0 277 -7 328 -53 397 -62 92 -214 135 -345 98z
m224 -471 c-13 -96 -65 -144 -155 -144 -107 0 -157 60 -116 139 8 16 22 32 32
36 26 11 140 21 197 16 l48 -3 -6 -44z"/>
<path d="M6335 4917 c-48 -48 -49 -95 -1 -143 26 -26 42 -34 69 -34 66 0 114
68 96 136 -12 42 -40 65 -88 71 -36 5 -44 2 -76 -30z"/>
<path d="M4515 4857 c-18 -40 -325 -903 -325 -914 0 -4 42 -7 92 -7 l93 2 39
111 38 111 175 -2 174 -3 38 -108 37 -109 92 -1 c51 -1 92 -1 92 1 0 13 -157
509 -222 702 l-83 245 -113 2 -113 2 -14 -32z m170 -334 c30 -89 58 -169 61
-177 5 -14 -9 -16 -115 -16 -67 0 -121 3 -121 7 0 11 114 352 117 350 1 -2 27
-76 58 -164z"/>
<path d="M7250 4725 l0 -95 -55 0 -55 0 0 -75 0 -75 55 0 55 0 0 -183 c0 -216
11 -268 65 -316 43 -37 90 -51 178 -51 l67 0 0 80 0 80 -47 0 c-91 1 -103 30
-103 242 l0 148 75 0 75 0 0 75 0 75 -75 0 -75 0 0 95 0 95 -80 0 -80 0 0 -95z"/>
<path d="M9080 4725 l0 -95 -55 0 -55 0 0 -75 0 -75 55 0 55 0 0 -198 c0 -191
1 -200 25 -248 36 -72 84 -97 197 -102 l88 -4 0 81 0 81 -49 0 c-33 0 -56 6
-72 19 -23 19 -24 24 -27 195 l-3 176 70 0 71 0 0 75 0 75 -70 0 -70 0 0 95 0
95 -80 0 -80 0 0 -95z"/>
<path d="M5262 4636 c-59 -19 -108 -60 -133 -108 -31 -61 -24 -171 14 -221 32
-43 105 -79 206 -101 103 -23 131 -39 131 -76 0 -47 -42 -73 -113 -68 -63 5
-104 28 -125 71 -12 25 -17 27 -83 27 l-69 0 0 -35 c0 -110 108 -194 262 -203
188 -11 298 70 298 218 0 125 -68 184 -260 226 -122 26 -158 67 -105 119 20
21 34 25 80 25 49 0 60 -4 86 -29 16 -16 29 -37 29 -46 0 -13 11 -15 73 -13
78 3 74 -1 62 71 -7 46 -54 101 -109 129 -52 26 -182 34 -244 14z"/>
<path d="M5862 4631 c-119 -41 -176 -150 -142 -273 21 -74 81 -109 282 -163
90 -24 112 -62 63 -110 -50 -51 -181 -24 -215 43 -15 31 -16 32 -87 32 l-73 0
0 -27 c0 -49 45 -129 88 -158 83 -55 215 -71 321 -40 124 38 193 170 146 283
-33 77 -86 111 -222 143 -117 27 -121 28 -138 45 -22 22 -18 60 7 84 17 15 35
20 79 20 63 0 105 -24 111 -63 3 -20 9 -22 76 -25 l72 -3 0 36 c0 146 -191
237 -368 176z"/>
<path d="M6727 4634 c-108 -33 -172 -142 -149 -252 20 -95 76 -136 240 -177
129 -32 160 -67 107 -120 -50 -51 -184 -24 -215 42 -15 32 -15 33 -89 33 l-74
0 7 -41 c9 -56 28 -89 75 -132 56 -50 130 -71 240 -65 99 5 150 26 199 82 66
75 68 199 4 269 -28 31 -107 66 -199 88 -116 28 -143 42 -143 77 0 48 33 72
100 72 57 0 99 -24 107 -60 5 -30 6 -30 79 -30 l74 0 0 35 c0 142 -186 233
-363 179z"/>
<path d="M7829 4634 c-81 -25 -178 -131 -179 -196 0 -16 10 -18 79 -18 76 0
79 1 85 25 10 38 61 65 124 65 46 0 58 -4 83 -29 23 -24 29 -38 29 -73 l0 -43
-103 -1 c-122 -1 -202 -22 -252 -66 -51 -44 -65 -77 -65 -152 0 -79 9 -103 55
-155 81 -90 260 -97 347 -14 l27 26 -2 -34 -2 -34 78 -3 79 -3 -4 278 c-3 306
-4 310 -71 381 -55 58 -200 80 -308 46z m217 -431 c-13 -97 -70 -148 -159
-140 -63 5 -92 32 -92 86 0 73 45 99 179 100 l79 1 -7 -47z"/>
<path d="M8608 4640 c-47 -14 -98 -50 -123 -88 l-25 -37 0 58 0 57 -75 0 -75
0 0 -347 0 -348 76 2 76 1 -1 179 c-1 216 8 286 45 324 71 74 183 57 225 -34
16 -37 19 -68 19 -257 l0 -215 77 2 78 1 0 259 c0 251 -1 259 -24 311 -49 109
-164 165 -273 132z"/>
<path d="M6322 4284 l3 -346 77 -1 78 -2 2 348 3 347 -83 0 -82 0 2 -346z"/>
</g>
</svg>
