<?xml version="1.0" standalone="no"?>
<!DOCTYPE svg PUBLIC "-//W3C//DTD SVG 20010904//EN"
 "http://www.w3.org/TR/2001/REC-SVG-20010904/DTD/svg10.dtd">
<svg version="1.0" xmlns="http://www.w3.org/2000/svg"
 width="1024.000000pt" height="1024.000000pt" viewBox="0 0 1024.000000 1024.000000"
 preserveAspectRatio="xMidYMid meet">

<g transform="translate(0.000000,1024.000000) scale(0.100000,-0.100000)"
fill="#000000" stroke="none">
<path d="M4963 9560 c-215 -56 -382 -209 -453 -413 -30 -86 -38 -255 -16 -357
36 -171 159 -334 305 -401 l71 -34 0 -477 0 -478 -332 0 c-448 0 -616 -16
-888 -86 -926 -237 -1692 -957 -1969 -1851 l-32 -101 -297 -4 c-276 -4 -301
-6 -356 -26 -80 -30 -144 -72 -203 -135 -61 -65 -85 -104 -115 -187 l-23 -65
0 -615 c0 -675 -1 -659 62 -785 32 -62 131 -161 199 -197 96 -52 143 -58 451
-58 246 0 283 -2 283 -15 0 -9 16 -65 36 -125 185 -574 555 -1079 1044 -1427
342 -244 685 -385 1130 -465 124 -22 137 -22 1195 -26 1109 -3 1171 -2 1391
38 266 49 463 117 719 249 665 342 1187 965 1410 1684 l27 87 274 0 c160 0
295 5 326 11 133 28 271 133 336 255 62 120 63 132 60 792 l-3 597 -26 67
c-52 133 -131 224 -251 288 -95 51 -161 60 -463 60 l-270 0 -22 81 c-35 123
-107 301 -182 444 -372 717 -1036 1242 -1813 1434 -246 61 -363 72 -800 78
l-398 6 0 477 0 477 67 33 c90 45 195 150 246 247 134 256 90 552 -112 753
-163 162 -393 226 -608 170z m1209 -2665 c319 -37 645 -146 902 -300 562 -337
960 -906 1091 -1559 42 -210 47 -307 42 -821 -5 -522 -7 -544 -72 -797 -161
-623 -633 -1200 -1210 -1478 -187 -90 -368 -151 -567 -189 -230 -44 -278 -46
-1253 -46 -839 0 -942 2 -1055 18 -455 65 -821 220 -1158 490 -478 384 -776
926 -854 1552 -17 138 -17 881 0 1035 52 462 197 838 463 1198 87 117 282 319
399 412 356 283 794 457 1245 493 22 2 459 4 970 5 767 2 952 -1 1057 -13z"/>
<path d="M3945 3416 c-88 -41 -138 -118 -138 -211 0 -79 24 -132 102 -221 168
-193 412 -350 686 -439 166 -55 283 -75 470 -82 463 -17 903 155 1227 479 131
131 170 227 134 335 -33 98 -119 157 -231 158 -87 0 -140 -28 -211 -111 -63
-74 -183 -169 -286 -226 -375 -211 -893 -188 -1250 53 -35 24 -113 91 -173
149 -149 143 -219 168 -330 116z"/>
</g>
</svg>
